<svg width="345" height="345" viewBox="0 0 345 345" fill="none" xmlns="http://www.w3.org/2000/svg">
<g filter="url(#filter0_d_1_35)">
<circle cx="172.5" cy="168.5" r="158.5" stroke="white" stroke-width="20"/>
<path d="M81.1946 230V106.364H103.592V211.225H158.045V230H81.1946ZM244.675 140.352C244.111 135.079 241.737 130.974 237.551 128.036C233.406 125.098 228.013 123.629 221.372 123.629C216.704 123.629 212.699 124.334 209.359 125.742C206.018 127.151 203.463 129.062 201.692 131.477C199.921 133.892 199.015 136.649 198.975 139.748C198.975 142.324 199.559 144.557 200.726 146.449C201.933 148.34 203.563 149.95 205.616 151.278C207.668 152.566 209.942 153.653 212.438 154.538C214.933 155.424 217.448 156.168 219.984 156.772L231.575 159.67C236.243 160.756 240.731 162.225 245.037 164.077C249.384 165.928 253.267 168.262 256.688 171.08C260.149 173.897 262.886 177.298 264.898 181.282C266.911 185.266 267.917 189.935 267.917 195.288C267.917 202.532 266.066 208.911 262.363 214.425C258.66 219.898 253.308 224.184 246.305 227.283C239.342 230.342 230.911 231.871 221.01 231.871C211.391 231.871 203.04 230.382 195.957 227.404C188.914 224.426 183.4 220.079 179.415 214.364C175.471 208.649 173.338 201.687 173.016 193.477H195.051C195.373 197.783 196.701 201.365 199.036 204.222C201.37 207.08 204.408 209.213 208.151 210.621C211.934 212.03 216.16 212.734 220.829 212.734C225.699 212.734 229.965 212.01 233.627 210.561C237.33 209.072 240.228 207.019 242.32 204.403C244.413 201.747 245.48 198.648 245.52 195.107C245.48 191.887 244.534 189.231 242.683 187.138C240.831 185.005 238.235 183.234 234.895 181.825C231.595 180.376 227.731 179.089 223.304 177.962L209.238 174.339C199.056 171.723 191.006 167.759 185.09 162.447C179.214 157.094 176.276 149.991 176.276 141.136C176.276 133.852 178.248 127.473 182.192 121.999C186.177 116.526 191.59 112.28 198.432 109.261C205.274 106.203 213.021 104.673 221.674 104.673C230.448 104.673 238.135 106.203 244.735 109.261C251.376 112.28 256.588 116.486 260.371 121.879C264.154 127.231 266.106 133.389 266.227 140.352H244.675Z" fill="white"/>
</g>
<defs>
<filter id="filter0_d_1_35" x="0" y="0" width="345" height="345" filterUnits="userSpaceOnUse" color-interpolation-filters="sRGB">
<feFlood flood-opacity="0" result="BackgroundImageFix"/>
<feColorMatrix in="SourceAlpha" type="matrix" values="0 0 0 0 0 0 0 0 0 0 0 0 0 0 0 0 0 0 127 0" result="hardAlpha"/>
<feOffset dy="4"/>
<feGaussianBlur stdDeviation="2"/>
<feComposite in2="hardAlpha" operator="out"/>
<feColorMatrix type="matrix" values="0 0 0 0 0 0 0 0 0 0 0 0 0 0 0 0 0 0 0.25 0"/>
<feBlend mode="normal" in2="BackgroundImageFix" result="effect1_dropShadow_1_35"/>
<feBlend mode="normal" in="SourceGraphic" in2="effect1_dropShadow_1_35" result="shape"/>
</filter>
</defs>
</svg>
